<?xml version="1.0" encoding="UTF-8" standalone="no"?>
<svg
   xmlns:dc="http://purl.org/dc/elements/1.1/"
   xmlns:cc="http://creativecommons.org/ns#"
   xmlns:rdf="http://www.w3.org/1999/02/22-rdf-syntax-ns#"
   xmlns:svg="http://www.w3.org/2000/svg"
   xmlns="http://www.w3.org/2000/svg"
   xmlns:sodipodi="http://sodipodi.sourceforge.net/DTD/sodipodi-0.dtd"
   xmlns:inkscape="http://www.inkscape.org/namespaces/inkscape"
   xml:space="preserve"
   version="1.1"
   style="shape-rendering:geometricPrecision;text-rendering:geometricPrecision;image-rendering:optimizeQuality;"
   viewBox="0 0 346 588"
   x="0px"
   y="0px"
   fill-rule="evenodd"
   clip-rule="evenodd"
   id="svg873"
   sodipodi:docname="hooky-icon.svg"
   inkscape:version="1.0beta2 (2b71d25, 2019-12-03)"><metadata
     id="metadata877"><rdf:RDF><cc:Work
         rdf:about=""><dc:format>image/svg+xml</dc:format><dc:type
           rdf:resource="http://purl.org/dc/dcmitype/StillImage" /><dc:title></dc:title></cc:Work></rdf:RDF></metadata><sodipodi:namedview
     inkscape:pagecheckerboard="true"
     pagecolor="#ffffff"
     bordercolor="#666666"
     inkscape:document-rotation="0"
     borderopacity="1"
     objecttolerance="10"
     gridtolerance="10"
     guidetolerance="10"
     inkscape:pageopacity="0"
     inkscape:pageshadow="2"
     inkscape:window-width="1728"
     inkscape:window-height="979"
     id="namedview875"
     showgrid="false"
     inkscape:zoom="0.78507742"
     inkscape:cx="331.97471"
     inkscape:cy="218.7723"
     inkscape:window-x="0"
     inkscape:window-y="38"
     inkscape:window-maximized="0"
     inkscape:current-layer="svg873" /><defs
     id="defs867"><style
       type="text/css"
       id="style865">
   
    .fil0 {fill:black}
   
  </style><style
       type="text/css"
       id="style883">
   
    .fil0 {fill:black}
   
  </style></defs><rect
     inkscape:export-ydpi="12.29"
     inkscape:export-xdpi="12.29"
     y="277.67963"
     x="45.85535"
     height="298.08081"
     width="260"
     id="rect902"
     style="fill:#000000;fill-opacity:0;stroke-width:206.182;stroke-linejoin:round" /><path
     class="fil0"
     d="m 206.89996,488.50715 c 0,26.01156 -21.24277,47.25433 -47.25433,47.25433 -25.57804,0 -46.82082,-21.24277 -46.82082,-47.25433 6.06937,0 11.70521,0 17.77457,0 -7.36994,-13.43931 -17.77457,-28.17919 -34.248551,-40.31792 v 40.31792 c 0,35.11561 28.612721,63.72832 63.294801,63.72832 35.1156,0 63.72832,-28.61271 63.72832,-63.72832 V 359.3164 c 13.4393,-3.90174 22.97688,-14.30636 22.97688,-30.34682 0,-16.04046 -13.87284,-31.6474 -31.21388,-31.6474 -17.77456,0 -31.64739,15.60694 -31.64739,31.6474 0,16.04046 9.9711,26.44508 23.4104,30.34682 0,45.08671 0,84.10404 0,129.19075 z m 8.23699,-174.71098 c -8.23699,0 -15.17341,6.93642 -15.17341,15.17341 0,8.23699 6.93642,14.73989 15.17341,14.73989 8.237,0 14.73989,-6.5029 14.73989,-14.73989 0,-8.23699 -6.50289,-15.17341 -14.73989,-15.17341 z"
     id="path887"
     inkscape:connector-curvature="0"
     style="clip-rule:evenodd;fill:#ffffff;fill-opacity:1;fill-rule:evenodd;stroke-width:0.433526;image-rendering:optimizeQuality;shape-rendering:geometricPrecision;text-rendering:geometricPrecision" /></svg>
