<?xml version="1.0" encoding="UTF-8" standalone="no"?>
<svg
   xmlns:dc="http://purl.org/dc/elements/1.1/"
   xmlns:cc="http://creativecommons.org/ns#"
   xmlns:rdf="http://www.w3.org/1999/02/22-rdf-syntax-ns#"
   xmlns:svg="http://www.w3.org/2000/svg"
   xmlns="http://www.w3.org/2000/svg"
   xmlns:sodipodi="http://sodipodi.sourceforge.net/DTD/sodipodi-0.dtd"
   xmlns:inkscape="http://www.inkscape.org/namespaces/inkscape"
   xml:space="preserve"
   version="1.1"
   style="shape-rendering:geometricPrecision;text-rendering:geometricPrecision;image-rendering:optimizeQuality;"
   viewBox="0 0 346 588"
   x="0px"
   y="0px"
   fill-rule="evenodd"
   clip-rule="evenodd"
   id="svg873"
   sodipodi:docname="black-circle.svg"
   inkscape:version="1.0beta2 (2b71d25, 2019-12-03)"><metadata
     id="metadata877"><rdf:RDF><cc:Work
         rdf:about=""><dc:format>image/svg+xml</dc:format><dc:type
           rdf:resource="http://purl.org/dc/dcmitype/StillImage" /><dc:title /></cc:Work></rdf:RDF></metadata><sodipodi:namedview
     inkscape:pagecheckerboard="true"
     pagecolor="#ffffff"
     bordercolor="#666666"
     inkscape:document-rotation="0"
     borderopacity="1"
     objecttolerance="10"
     gridtolerance="10"
     guidetolerance="10"
     inkscape:pageopacity="0"
     inkscape:pageshadow="2"
     inkscape:window-width="1728"
     inkscape:window-height="979"
     id="namedview875"
     showgrid="false"
     inkscape:zoom="0.78507742"
     inkscape:cx="331.97471"
     inkscape:cy="218.7723"
     inkscape:window-x="0"
     inkscape:window-y="38"
     inkscape:window-maximized="0"
     inkscape:current-layer="svg873" /><defs
     id="defs867"><style
       type="text/css"
       id="style865">

    .fil0 {fill:black}

  </style><style
       type="text/css"
       id="style883">

    .fil0 {fill:black}

  </style></defs><circle
     style="fill:#000000;fill-opacity:1;stroke-width:2.93629;stroke-linejoin:round"
     id="path841"
     cx="162.02271"
     cy="423.13208"
     r="142"
     inkscape:export-filename="/Users/samuel/black-hook.png"
     inkscape:export-xdpi="87.870003"
     inkscape:export-ydpi="87.870003" /><rect
     inkscape:export-ydpi="12.29"
     inkscape:export-xdpi="12.29"
     y="277.67963"
     x="45.85535"
     height="298.08081"
     width="260"
     id="rect902"
     style="fill:#000000;fill-opacity:0;stroke-width:206.182;stroke-linejoin:round" /><path
     class="fil0"
     d="m 192.50373,482.68587 c 0,21.85234 -16.5527,39.69843 -36.82129,39.69843 -19.93078,0 -36.48348,-17.84609 -36.48348,-39.69843 4.72934,0 9.12088,0 13.8502,0 -5.74276,-11.29038 -13.8502,-23.67337 -26.68697,-33.87113 v 33.87113 c 0,29.50066 22.29546,53.53824 49.32025,53.53824 27.36261,0 49.65807,-24.03758 49.65807,-53.53824 V 374.15256 c 10.4721,-3.27787 17.90392,-12.0188 17.90392,-25.49441 0,-13.47561 -10.80992,-26.58701 -24.32232,-26.58701 -13.8502,0 -24.66012,13.1114 -24.66012,26.58701 0,13.47561 7.76964,22.21654 18.24174,25.49441 0,37.8774 0,70.65591 0,108.53331 z m 6.41838,-146.77491 c -6.41838,0 -11.82334,5.82729 -11.82334,12.74719 0,6.91991 5.40496,12.383 11.82334,12.383 6.4184,0 11.48554,-5.46309 11.48554,-12.383 0,-6.9199 -5.06714,-12.74719 -11.48554,-12.74719 z"
     id="path887"
     inkscape:connector-curvature="0"
     style="clip-rule:evenodd;fill:#ffffff;fill-opacity:1;fill-rule:evenodd;stroke-width:0.35076;image-rendering:optimizeQuality;shape-rendering:geometricPrecision;text-rendering:geometricPrecision" /></svg>
