<?xml version="1.0" encoding="UTF-8" standalone="no"?>
<svg
   xmlns:dc="http://purl.org/dc/elements/1.1/"
   xmlns:cc="http://creativecommons.org/ns#"
   xmlns:rdf="http://www.w3.org/1999/02/22-rdf-syntax-ns#"
   xmlns:svg="http://www.w3.org/2000/svg"
   xmlns="http://www.w3.org/2000/svg"
   xmlns:sodipodi="http://sodipodi.sourceforge.net/DTD/sodipodi-0.dtd"
   xmlns:inkscape="http://www.inkscape.org/namespaces/inkscape"
   inkscape:version="1.0beta2 (2b71d25, 2019-12-03)"
   sodipodi:docname="black-circle.svg"
   id="svg873"
   clip-rule="evenodd"
   fill-rule="evenodd"
   y="0px"
   x="0px"
   viewBox="0 0 346 588"
   style="shape-rendering:geometricPrecision;text-rendering:geometricPrecision;image-rendering:optimizeQuality;"
   version="1.1"
   xml:space="preserve"><metadata
     id="metadata877"><rdf:RDF><cc:Work
         rdf:about=""><dc:format>image/svg+xml</dc:format><dc:type
           rdf:resource="http://purl.org/dc/dcmitype/StillImage" /><dc:title /></cc:Work></rdf:RDF></metadata><sodipodi:namedview
     inkscape:current-layer="svg873"
     inkscape:window-maximized="0"
     inkscape:window-y="38"
     inkscape:window-x="0"
     inkscape:cy="218.7723"
     inkscape:cx="331.97471"
     inkscape:zoom="0.78507742"
     showgrid="false"
     id="namedview875"
     inkscape:window-height="979"
     inkscape:window-width="1728"
     inkscape:pageshadow="2"
     inkscape:pageopacity="0"
     guidetolerance="10"
     gridtolerance="10"
     objecttolerance="10"
     borderopacity="1"
     inkscape:document-rotation="0"
     bordercolor="#666666"
     pagecolor="#ffffff"
     inkscape:pagecheckerboard="true" /><defs
     id="defs867"><style
       id="style865"
       type="text/css">

    .fil0 {fill:black}

  </style><style
       id="style883"
       type="text/css">

    .fil0 {fill:black}

  </style></defs><circle
     inkscape:export-ydpi="87.870003"
     inkscape:export-xdpi="87.870003"
     inkscape:export-filename="/Users/samuel/black-hook.png"
     r="142"
     cy="423.13208"
     cx="162.02271"
     id="path841"
     style="fill:#000000;fill-opacity:1;stroke-width:2.93629;stroke-linejoin:round" /><rect
     style="fill:#000000;fill-opacity:0;stroke-width:206.182;stroke-linejoin:round"
     id="rect902"
     width="260"
     height="298.08081"
     x="45.85535"
     y="277.67963"
     inkscape:export-xdpi="12.29"
     inkscape:export-ydpi="12.29" /><path
     style="clip-rule:evenodd;fill:#ffffff;fill-opacity:1;fill-rule:evenodd;stroke-width:0.398083;image-rendering:optimizeQuality;shape-rendering:geometricPrecision;text-rendering:geometricPrecision"
     inkscape:connector-curvature="0"
     id="path887"
     d="m 204.39495,485.87027 c 0,24.1919 -19.25851,43.94862 -42.84035,43.94862 -23.18881,0 -42.44733,-19.75672 -42.44733,-43.94862 5.50243,0 10.61184,0 16.11426,0 -6.68152,-12.49915 -16.11426,-26.20789 -31.04942,-37.49745 v 37.49745 c 0,32.65907 25.94004,59.27016 57.38249,59.27016 31.83549,0 57.77552,-26.61109 57.77552,-59.27016 V 365.71715 c 12.18395,-3.6288 20.83063,-13.30555 20.83063,-28.22389 0,-14.91834 -12.57699,-29.43348 -28.29822,-29.43348 -16.11425,0 -28.69124,14.51514 -28.69124,29.43348 0,14.91834 9.03972,24.59509 21.22366,28.22389 0,41.93264 0,78.22048 0,120.15312 z m 7.46758,-162.48895 c -7.46758,0 -13.75607,6.45118 -13.75607,14.11194 0,7.66077 6.28849,13.70875 13.75607,13.70875 7.46759,0 13.36305,-6.04798 13.36305,-13.70875 0,-7.66076 -5.89546,-14.11194 -13.36305,-14.11194 z"
     class="fil0" /></svg>
