<?xml version="1.0" encoding="UTF-8" standalone="no"?>
<svg
   xmlns:dc="http://purl.org/dc/elements/1.1/"
   xmlns:cc="http://creativecommons.org/ns#"
   xmlns:rdf="http://www.w3.org/1999/02/22-rdf-syntax-ns#"
   xmlns:svg="http://www.w3.org/2000/svg"
   xmlns="http://www.w3.org/2000/svg"
   xmlns:sodipodi="http://sodipodi.sourceforge.net/DTD/sodipodi-0.dtd"
   xmlns:inkscape="http://www.inkscape.org/namespaces/inkscape"
   xml:space="preserve"
   version="1.1"
   style="shape-rendering:geometricPrecision;text-rendering:geometricPrecision;image-rendering:optimizeQuality;"
   viewBox="0 0 346 588"
   x="0px"
   y="0px"
   fill-rule="evenodd"
   clip-rule="evenodd"
   id="svg873"
   sodipodi:docname="hook-only.svg"
   inkscape:version="1.0beta2 (2b71d25, 2019-12-03)"><metadata
     id="metadata877"><rdf:RDF><cc:Work
         rdf:about=""><dc:format>image/svg+xml</dc:format><dc:type
           rdf:resource="http://purl.org/dc/dcmitype/StillImage" /><dc:title></dc:title></cc:Work></rdf:RDF></metadata><sodipodi:namedview
     inkscape:pagecheckerboard="true"
     pagecolor="#ffffff"
     bordercolor="#666666"
     inkscape:document-rotation="0"
     borderopacity="1"
     objecttolerance="10"
     gridtolerance="10"
     guidetolerance="10"
     inkscape:pageopacity="0"
     inkscape:pageshadow="2"
     inkscape:window-width="1728"
     inkscape:window-height="979"
     id="namedview875"
     showgrid="false"
     inkscape:zoom="0.78507742"
     inkscape:cx="331.97471"
     inkscape:cy="218.7723"
     inkscape:window-x="0"
     inkscape:window-y="38"
     inkscape:window-maximized="0"
     inkscape:current-layer="svg873" /><defs
     id="defs867"><style
       type="text/css"
       id="style865">

    .fil0 {fill:black}

  </style><style
       type="text/css"
       id="style883">

    .fil0 {fill:black}

  </style></defs><rect
     inkscape:export-ydpi="96"
     inkscape:export-xdpi="96"
     y="305.32217"
     x="54.771667"
     height="260"
     width="260"
     id="rect902"
     style="fill:#000000;fill-opacity:0;stroke:none;stroke-width:3.52986;stroke-linejoin:round;stroke-miterlimit:4;stroke-dasharray:none;stroke-opacity:1" /><path
     class="fil0"
     d="m 216.67531,491.41722 c 0,22.44898 -18.33333,40.78231 -40.7823,40.78231 -22.07484,0 -40.40818,-18.33333 -40.40818,-40.78231 5.2381,0 10.10205,0 15.34014,0 -6.36055,-11.59864 -15.34014,-24.31972 -29.55782,-34.79591 v 34.79591 c 0,30.30612 24.69389,55 54.62586,55 30.30611,0 54.99999,-24.69388 54.99999,-55 v -111.4966 c 11.59864,-3.36735 19.82994,-12.34694 19.82994,-26.19048 0,-13.84353 -11.9728,-27.31292 -26.93879,-27.31292 -15.34012,0 -27.31292,13.46939 -27.31292,27.31292 0,13.84354 8.60545,22.82313 20.20408,26.19048 0,38.91157 0,72.58504 0,111.4966 z m 7.10884,-150.78231 c -7.10884,0 -13.09523,5.9864 -13.09523,13.09523 0,7.10885 5.98639,12.7211 13.09523,12.7211 7.10885,0 12.7211,-5.61225 12.7211,-12.7211 0,-7.10883 -5.61225,-13.09523 -12.7211,-13.09523 z"
     id="path887"
     inkscape:connector-curvature="0"
     style="clip-rule:evenodd;fill:#ffffff;fill-opacity:1;fill-rule:evenodd;stroke-width:0.374149;image-rendering:optimizeQuality;shape-rendering:geometricPrecision;text-rendering:geometricPrecision" /></svg>
